<svg width="35" height="35" viewBox="0 0 35 35" fill="none" xmlns="http://www.w3.org/2000/svg">
<path d="M35 17.5C35 27.16 27.16 35 17.5 35C7.84 35 0 27.16 0 17.5C0 7.84 7.84 0 17.5 0C27.16 0 35 7.84 35 17.5Z" fill="#404040"/>
<path d="M17.5 5.63499C10.71 5.63499 5.25 11.13 5.25 17.885C5.25 23.31 8.75 27.895 13.65 29.54C14.28 29.645 14.49 29.26 14.49 28.945C14.49 28.665 14.49 27.895 14.49 26.845C11.025 27.58 10.325 25.2 10.325 25.2C9.765 23.765 8.96 23.415 8.96 23.415C7.84 22.645 9.03 22.68 9.03 22.68C10.255 22.75 10.92 23.94 10.92 23.94C12.005 25.83 13.79 25.27 14.49 24.955C14.595 24.15 14.91 23.625 15.26 23.31C12.53 22.995 9.66 21.945 9.66 17.255C9.66 15.925 10.15 14.805 10.92 13.965C10.78 13.65 10.36 12.425 11.025 10.71C11.025 10.71 12.04 10.395 14.385 11.97C15.4 11.69 16.45 11.55 17.5 11.55C18.55 11.55 19.6 11.69 20.58 11.97C22.925 10.395 23.94 10.71 23.94 10.71C24.605 12.39 24.185 13.65 24.045 13.965C24.815 14.84 25.305 15.925 25.305 17.255C25.305 21.98 22.435 22.995 19.705 23.31C20.16 23.695 20.545 24.43 20.545 25.585C20.545 27.23 20.545 28.56 20.545 28.945C20.545 29.26 20.755 29.645 21.385 29.54C26.25 27.895 29.75 23.31 29.75 17.885C29.75 11.13 24.29 5.63499 17.5 5.63499Z" fill="white"/>
</svg>
