<svg width="35" height="35" viewBox="0 0 35 35" fill="none" xmlns="http://www.w3.org/2000/svg">
<path d="M35 17.5C35 27.16 27.16 35 17.5 35C7.84 35 0 27.16 0 17.5C0 7.84 7.84 0 17.5 0C27.16 0 35 7.84 35 17.5Z" fill="#404040"/>
<path d="M10.325 7.38499C11.585 7.38499 12.6 8.39999 12.6 9.65999C12.6 10.92 11.585 11.935 10.325 11.935C9.06499 11.935 8.04999 10.92 8.04999 9.65999C8.04999 8.39999 9.06499 7.38499 10.325 7.38499ZM8.32999 13.65H12.25V26.285H8.32999V13.65Z" fill="white"/>
<path d="M14.735 13.65H18.48V15.4H18.55C19.075 14.42 20.37 13.37 22.26 13.37C26.215 13.37 26.95 15.995 26.95 19.39V26.32H23.03V20.16C23.03 18.69 22.995 16.8 21 16.8C18.97 16.8 18.655 18.41 18.655 20.055V26.285H14.735V13.65Z" fill="white"/>
</svg>
