<svg width="35" height="35" viewBox="0 0 35 35" fill="none" xmlns="http://www.w3.org/2000/svg">
<path d="M35 17.5C35 27.16 27.16 35 17.5 35C7.84 35 0 27.16 0 17.5C0 7.84 7.84 0 17.5 0C27.16 0 35 7.84 35 17.5Z" fill="#404040"/>
<path d="M13.895 25.48C21.245 25.48 25.235 19.39 25.235 14.14C25.235 13.965 25.235 13.79 25.235 13.615C26.005 13.055 26.705 12.355 27.23 11.55C26.53 11.865 25.76 12.075 24.92 12.18C25.76 11.69 26.39 10.92 26.67 9.97501C25.9 10.43 25.06 10.78 24.15 10.955C23.415 10.185 22.4 9.69501 21.245 9.69501C19.04 9.69501 17.255 11.48 17.255 13.685C17.255 14 17.29 14.315 17.36 14.595C14.035 14.42 11.095 12.845 9.13502 10.43C8.78502 11.025 8.61002 11.69 8.61002 12.425C8.61002 13.825 9.31002 15.015 10.395 15.75C9.73002 15.715 9.13502 15.54 8.57502 15.26V15.295C8.57502 17.22 9.94002 18.83 11.76 19.215C11.41 19.32 11.06 19.355 10.71 19.355C10.465 19.355 10.22 19.32 9.97502 19.285C10.465 20.86 11.97 22.015 13.685 22.05C12.32 23.135 10.605 23.765 8.71502 23.765C8.40002 23.765 8.08502 23.73 7.77002 23.695C9.55502 24.815 11.655 25.48 13.895 25.48Z" fill="white"/>
</svg>
